<svg xmlns="http://www.w3.org/2000/svg" id="Lager_1" viewBox="0 0 799.34 133.43"><defs><style>.cls-1{fill:#ed6b06;stroke-width:0px;}</style></defs><path class="cls-1" d="m96.86,29c-2.34,13.47-15.16,22.5-28.63,20.16-13.47-2.34-22.5-15.16-20.15-28.63C50.41,7.05,63.23-1.97,76.7.37c13.48,2.34,22.5,15.16,20.16,28.63Z"></path><path class="cls-1" d="m96.86,88.03c-2.34,13.47-15.16,22.5-28.64,20.16-13.47-2.34-22.5-15.16-20.16-28.63,2.34-13.47,15.16-22.5,28.63-20.16,13.48,2.34,22.5,15.16,20.16,28.64Z"></path><path class="cls-1" d="m49.16,58.71c-2.34,13.47-15.16,22.5-28.64,20.15C7.05,76.52-1.97,63.7.37,50.23c2.34-13.47,15.16-22.5,28.63-20.16,13.48,2.34,22.5,15.16,20.16,28.64Z"></path><path class="cls-1" d="m189.87,72.98c3.24,0,6.04-.55,8.38-1.64,2.34-1.09,4.79-2.83,7.34-5.23l6.06,6.22c-5.9,6.54-13.07,9.81-21.5,9.81s-15.43-2.71-20.98-8.14c-5.56-5.43-8.34-12.29-8.34-20.59s2.83-15.21,8.5-20.74c5.66-5.53,12.82-8.3,21.46-8.3s15.86,3.19,21.66,9.57l-5.98,6.54c-2.66-2.55-5.17-4.33-7.54-5.35-2.37-1.01-5.15-1.52-8.34-1.52-5.64,0-10.37,1.82-14.2,5.46-3.83,3.64-5.74,8.3-5.74,13.96s1.9,10.4,5.7,14.2c3.8,3.8,8.31,5.71,13.52,5.71Z"></path><path class="cls-1" d="m268.61,73.81c-5.64,5.51-12.61,8.26-20.9,8.26s-15.27-2.75-20.9-8.26c-5.64-5.51-8.46-12.37-8.46-20.59s2.82-15.08,8.46-20.58c5.64-5.51,12.61-8.26,20.9-8.26s15.26,2.75,20.9,8.26c5.64,5.51,8.46,12.37,8.46,20.58s-2.82,15.08-8.46,20.59Zm-6.9-34.91c-3.8-3.94-8.47-5.9-14-5.9s-10.2,1.97-14,5.9c-3.8,3.94-5.7,8.71-5.7,14.32s1.9,10.39,5.7,14.32c3.8,3.94,8.47,5.9,14,5.9s10.2-1.97,14-5.9c3.8-3.93,5.71-8.71,5.71-14.32s-1.9-10.38-5.71-14.32Z"></path><path class="cls-1" d="m333.48,43.85c0,9.2-4.02,15-12.05,17.39l14.6,20.26h-11.97l-13.32-18.75h-12.37v18.75h-9.41V25.74h20.74c8.51,0,14.6,1.44,18.27,4.31,3.67,2.87,5.51,7.47,5.51,13.8Zm-12.53,7.9c1.92-1.65,2.87-4.29,2.87-7.94s-.98-6.14-2.95-7.5c-1.97-1.36-5.48-2.03-10.53-2.03h-11.97v19.95h11.73c5.32,0,8.94-.83,10.85-2.47Z"></path><path class="cls-1" d="m386.22,25.74v8.86h-29.76v14.76h26.73v8.38h-26.73v14.92h30.72v8.86h-40.13V25.74h39.17Z"></path><path class="cls-1" d="m441.43,33.04c5.37,4.87,8.06,11.64,8.06,20.31s-2.61,15.53-7.82,20.59c-5.21,5.05-13.19,7.58-23.93,7.58h-18.51V25.74h19.15c10,0,17.68,2.43,23.06,7.3Zm-1.44,20.54c0-12.77-7.31-19.15-21.94-19.15h-9.42v38.22h10.45c6.75,0,11.93-1.61,15.52-4.83,3.59-3.22,5.38-7.97,5.38-14.24Z"></path><path class="cls-1" d="m461.61,25.74h9.42v55.77h-9.42V25.74Z"></path><path class="cls-1" d="m528.31,25.74h9.41v55.77h-10.21l-31.6-40.69v40.69h-9.41V25.74h9.41l32.39,41.65V25.74Z"></path><path class="cls-1" d="m561.1,68.83l-5.59,12.69h-10.05l24.57-55.77h10.05l24.57,55.77h-10.05l-5.58-12.69h-27.93Zm24.09-8.7l-10.13-22.98-10.13,22.98h20.26Z"></path><path class="cls-1" d="m629.08,34.36v47.15h-9.41v-47.15h-16.91v-8.62h43.24v8.62h-16.91Z"></path><path class="cls-1" d="m656.2,25.74h9.42v55.77h-9.42V25.74Z"></path><path class="cls-1" d="m727.77,73.81c-5.64,5.51-12.61,8.26-20.9,8.26s-15.27-2.75-20.9-8.26c-5.64-5.51-8.46-12.37-8.46-20.59s2.82-15.08,8.46-20.58c5.64-5.51,12.61-8.26,20.9-8.26s15.26,2.75,20.9,8.26c5.64,5.51,8.46,12.37,8.46,20.58s-2.82,15.08-8.46,20.59Zm-6.9-34.91c-3.8-3.94-8.47-5.9-14-5.9s-10.2,1.97-14,5.9c-3.8,3.94-5.7,8.71-5.7,14.32s1.9,10.39,5.7,14.32c3.8,3.94,8.47,5.9,14,5.9s10.2-1.97,14-5.9c3.8-3.93,5.71-8.71,5.71-14.32s-1.9-10.38-5.71-14.32Z"></path><path class="cls-1" d="m789.92,25.74h9.42v55.77h-10.21l-31.6-40.69v40.69h-9.42V25.74h9.42l32.39,41.65V25.74Z"></path><path class="cls-1" d="m307.52,132.29c-1.67-.68-3-1.69-4-3.03-1-1.34-1.52-2.95-1.58-4.83h7.46c.11,1.07.48,1.88,1.11,2.44.63.56,1.45.84,2.46.84s1.86-.24,2.46-.72c.6-.48.9-1.14.9-1.99,0-.71-.24-1.3-.72-1.76-.48-.46-1.07-.85-1.76-1.15-.7-.3-1.69-.64-2.97-1.02-1.86-.57-3.37-1.15-4.55-1.72-1.18-.57-2.19-1.42-3.03-2.54-.85-1.12-1.27-2.58-1.27-4.38,0-2.68.97-4.77,2.91-6.29,1.94-1.52,4.47-2.27,7.58-2.27s5.72.76,7.66,2.27c1.94,1.52,2.98,3.62,3.11,6.33h-7.58c-.06-.93-.4-1.66-1.02-2.19-.63-.53-1.43-.8-2.42-.8-.85,0-1.53.23-2.05.68-.52.45-.78,1.1-.78,1.95,0,.93.44,1.65,1.31,2.17.87.52,2.24,1.08,4.1,1.68,1.86.63,3.37,1.23,4.53,1.8,1.16.57,2.16,1.41,3.01,2.5.85,1.09,1.27,2.5,1.27,4.22s-.42,3.13-1.25,4.47c-.83,1.34-2.04,2.4-3.63,3.2-1.58.79-3.46,1.19-5.61,1.19s-3.99-.34-5.65-1.02"></path><path class="cls-1" d="m363.92,112.5c1.68,1.72,2.52,4.11,2.52,7.17v13.36h-6.97v-12.41c0-1.47-.39-2.61-1.17-3.42-.78-.8-1.85-1.21-3.22-1.21s-2.44.4-3.22,1.21c-.78.81-1.17,1.95-1.17,3.42v12.41h-6.97v-12.41c0-1.47-.39-2.61-1.17-3.42-.78-.8-1.85-1.21-3.22-1.21s-2.44.4-3.22,1.21c-.78.81-1.17,1.95-1.17,3.42v12.41h-7.01v-22.86h7.01v2.87c.71-.96,1.64-1.71,2.79-2.27,1.15-.56,2.44-.84,3.89-.84,1.72,0,3.26.37,4.61,1.11,1.35.74,2.41,1.79,3.18,3.15.79-1.26,1.87-2.28,3.24-3.07,1.36-.79,2.85-1.19,4.47-1.19,2.84,0,5.1.86,6.78,2.58"></path><path class="cls-1" d="m371.29,115.37c.89-1.78,2.1-3.14,3.63-4.1,1.53-.96,3.24-1.43,5.12-1.43,1.61,0,3.02.33,4.24.98,1.22.66,2.15,1.52,2.81,2.58v-3.24h7.01v22.86h-7.01v-3.24c-.68,1.07-1.63,1.93-2.85,2.58-1.22.66-2.63.98-4.24.98-1.86,0-3.55-.49-5.08-1.45-1.53-.97-2.74-2.35-3.63-4.14-.89-1.79-1.33-3.86-1.33-6.21s.44-4.41,1.33-6.19m14.34,2.09c-.97-1.01-2.15-1.52-3.54-1.52s-2.57.5-3.54,1.5c-.97,1-1.45,2.37-1.45,4.12s.49,3.13,1.45,4.16c.97,1.02,2.15,1.54,3.54,1.54s2.57-.51,3.54-1.52c.97-1.01,1.45-2.39,1.45-4.14s-.49-3.13-1.45-4.14"></path><path class="cls-1" d="m409.25,111.01c1.23-.72,2.59-.84,4.1-.84v5.93s-1.27-.08-2.58.34c-1.39.44-2.49,1.13-3.28,2.03-.77.86-1.31,2.07-1.31,3.95v10.61h-7.01v-22.86h7.01v3.81c.82-1.26,1.84-2.25,3.07-2.97"></path><path class="cls-1" d="m474.64,111.01c1.23-.72,2.59-.84,4.1-.84v5.93s-1.27-.08-2.58.34c-1.39.44-2.49,1.13-3.28,2.03-.77.86-1.31,2.07-1.31,3.95v10.61h-7.01v-22.86h7.01v3.81c.82-1.26,1.84-2.25,3.07-2.97"></path><path class="cls-1" d="m482.04,115.37c.89-1.78,2.1-3.14,3.63-4.1,1.53-.96,3.24-1.43,5.12-1.43,1.61,0,3.02.33,4.24.98,1.22.66,2.15,1.52,2.81,2.58v-3.24h7.01v22.86h-7.01v-3.24c-.68,1.07-1.63,1.93-2.85,2.58-1.22.66-2.63.98-4.24.98-1.86,0-3.55-.49-5.08-1.45-1.53-.97-2.74-2.35-3.63-4.14-.89-1.79-1.33-3.86-1.33-6.21s.44-4.41,1.33-6.19m14.34,2.09c-.97-1.01-2.15-1.52-3.54-1.52s-2.57.5-3.54,1.5c-.97,1-1.45,2.37-1.45,4.12s.49,3.13,1.45,4.16c.97,1.02,2.15,1.54,3.54,1.54s2.57-.51,3.54-1.52c.97-1.01,1.45-2.39,1.45-4.14s-.49-3.13-1.45-4.14"></path><path class="cls-1" d="m521.39,115.98h-3.77v17.04h-7.01v-17.04h-2.54v-5.82h2.54v-.66c0-2.81.8-4.95,2.42-6.41,1.61-1.46,3.97-2.19,7.09-2.19.52,0,.9.01,1.15.04v5.94c-1.34-.08-2.28.11-2.83.57-.55.46-.82,1.3-.82,2.5v.2h3.77v5.82Z"></path><polygon class="cls-1" points="527.34 133.03 527.34 116.01 524.11 116.01 524.11 110.19 527.34 110.19 527.34 104.62 534.35 104.62 534.35 110.19 537.58 110.19 537.58 116.01 534.35 116.01 534.35 133.03 527.34 133.03"></polygon><polygon class="cls-1" points="420.11 133.03 420.11 116.01 416.87 116.01 416.87 110.19 420.11 110.19 420.11 104.62 427.12 104.62 427.12 110.19 430.35 110.19 430.35 116.01 427.12 116.01 427.12 133.03 420.11 133.03"></polygon><path class="cls-1" d="m433.88,118.68c0-8.09,6.61-14.67,14.83-14.67,5.13,0,9.62,2.54,12.29,6.38l-5.17,3.54c-1.53-2.29-3.77-3.71-6.82-3.71-4.91,0-8.43,3.71-8.43,8.46s3.39,8.59,8.39,8.59c3.09,0,5.34-1.42,6.86-3.75l5.17,3.58c-2.67,3.84-7.16,6.34-12.29,6.34-8.22,0-14.83-6.58-14.83-14.75"></path><path class="cls-1" d="m180.22,116.93c0,2.29-.75,4.04-2.25,5.25-1.5,1.22-3.63,1.83-6.39,1.83h-2.28v8.19h-3.58v-21.88h6.3c2.73,0,4.78.56,6.14,1.68s2.04,2.76,2.04,4.94Zm-10.91,4.07h1.9c1.84,0,3.18-.32,4.04-.96.86-.64,1.29-1.64,1.29-2.99,0-1.26-.38-2.2-1.15-2.81-.77-.62-1.97-.93-3.59-.93h-2.48v7.69Z"></path><path class="cls-1" d="m198.17,132.2l-2.19-6.08h-8.37l-2.14,6.08h-3.77l8.19-21.97h3.89l8.19,21.97h-3.8Zm-3.13-9.16l-2.05-5.96c-.15-.4-.36-1.03-.62-1.89-.26-.86-.45-1.49-.55-1.89-.27,1.23-.66,2.57-1.18,4.03l-1.98,5.7h6.38Z"></path><path class="cls-1" d="m208.44,123.46v8.74h-3.58v-21.88h6.18c2.82,0,4.91.53,6.27,1.59,1.36,1.06,2.04,2.65,2.04,4.79,0,2.72-1.42,4.67-4.25,5.82l6.18,9.69h-4.07l-5.24-8.74h-3.53Zm0-2.96h2.48c1.67,0,2.87-.31,3.62-.93.75-.62,1.12-1.54,1.12-2.75s-.4-2.13-1.21-2.66c-.81-.54-2.03-.81-3.65-.81h-2.37v7.16Z"></path><path class="cls-1" d="m232.01,132.2h-3.58v-18.82h-6.44v-3.07h16.45v3.07h-6.44v18.82Z"></path><path class="cls-1" d="m269.2,121.23c0,3.56-.89,6.33-2.67,8.31-1.78,1.98-4.3,2.96-7.57,2.96s-5.84-.98-7.61-2.94c-1.77-1.96-2.66-4.75-2.66-8.36s.89-6.39,2.67-8.32c1.78-1.94,4.32-2.9,7.63-2.9s5.77.98,7.54,2.95c1.78,1.97,2.66,4.73,2.66,8.31Zm-16.71,0c0,2.69.54,4.74,1.63,6.13,1.09,1.39,2.7,2.09,4.84,2.09s3.73-.69,4.81-2.07,1.62-3.43,1.62-6.15-.54-4.72-1.61-6.11c-1.07-1.39-2.67-2.08-4.8-2.08s-3.76.69-4.86,2.08c-1.09,1.39-1.64,3.42-1.64,6.11Z"></path><path class="cls-1" d="m277.44,132.2h-3.55v-21.88h12.35v3.02h-8.8v6.84h8.25v3.04h-8.25v8.98Z"></path></svg>